# xmcd
#
# Track frame offsets:
#	150
#	16682
#	29705
#	41440
#	55460
#	67590
#	85855
#	101835
#	116490
#	129165
#	142160
#	157222
#	171165
#	186217
#	198792
#	212200
# Disc length: 3071 seconds
# Revision: 1
# Processed by: cddbd v1.5.2PL0 Copyright (c) Steve Scherf et al.
#
# Submitted via: libkcddb 0.31
#
DISCID=df0bfd10
DTITLE=Mr. Acker Bilk - Mr. Acker Bilk
DYEAR=1988
DGENRE=Jazz
TTITLE0=Summer Set
TTITLE1=Sentimental Journey
TTITLE2=2 - 19 Blues
TTITLE3=Liza
TTITLE4=Creole Jazz
TTITLE5=Perdido Street Blues
TTITLE6=Tailgate Ramble
TTITLE7=House Rent Stomp
TTITLE8=Dixie
TTITLE9=Strangers on the shore
TTITLE10=Jelly Bean Blues
TTITLE11=My little ragtime Baby
TTITLE12=Missouri Waltz
TTITLE13=Maria Elena
TTITLE14=Papa Dip
TTITLE15=The white cliffs of Dover
EXTD=YEAR: 1988
EXTT0=
EXTT1=
EXTT2=
EXTT3=
EXTT4=
EXTT5=
EXTT6=
EXTT7=
EXTT8=
EXTT9=
EXTT10=
EXTT11=
EXTT12=
EXTT13=
EXTT14=
EXTT15=
PLAYORDER=
